<svg width="24" height="24" viewBox="0 0 24 24" fill="none" xmlns="http://www.w3.org/2000/svg">
<path d="M12 5C12.0012 4.60003 11.9224 4.20386 11.7682 3.8348C11.614 3.46574 11.3876 3.13123 11.1023 2.85095C10.8169 2.57066 10.4784 2.35027 10.1067 2.20273C9.73491 2.05519 9.33739 1.98348 8.93751 1.99181C8.53762 2.00015 8.14344 2.08836 7.77815 2.25127C7.41286 2.41417 7.08383 2.64848 6.81041 2.9404C6.537 3.23233 6.32472 3.57598 6.18606 3.95115C6.04741 4.32632 5.98517 4.72543 6.00301 5.125C5.41521 5.27614 4.86952 5.55905 4.40724 5.95231C3.94497 6.34557 3.57825 6.83887 3.33486 7.39485C3.09146 7.95082 2.97777 8.55489 3.0024 9.16131C3.02703 9.76773 3.18933 10.3606 3.47701 10.895C2.97119 11.3059 2.57344 11.8342 2.31835 12.4339C2.06327 13.0336 1.95857 13.6866 2.01338 14.336C2.06818 14.9854 2.28083 15.6116 2.63282 16.16C2.98481 16.7085 3.46548 17.1627 4.03301 17.483C3.96293 18.0252 4.00475 18.5761 4.1559 19.1015C4.30705 19.627 4.56431 20.1158 4.9118 20.538C5.25929 20.9601 5.68962 21.3065 6.17623 21.5558C6.66284 21.805 7.19539 21.9519 7.74099 21.9873C8.28659 22.0227 8.83365 21.9459 9.3484 21.7616C9.86315 21.5773 10.3346 21.2894 10.7338 20.9158C11.1329 20.5421 11.4512 20.0906 11.669 19.5891C11.8868 19.0876 11.9994 18.5467 12 18V5Z" stroke="#2B3466" stroke-width="2" stroke-linecap="round" stroke-linejoin="round"/>
<path d="M9 13C9.83956 12.7047 10.5727 12.167 11.1067 11.455C11.6407 10.743 11.9515 9.88867 12 9" stroke="#2B3466" stroke-width="2" stroke-linecap="round" stroke-linejoin="round"/>
<path d="M6.00299 5.125C6.02277 5.60873 6.15932 6.0805 6.40099 6.5" stroke="#2B3466" stroke-width="2" stroke-linecap="round" stroke-linejoin="round"/>
<path d="M3.47699 10.896C3.65993 10.747 3.85569 10.6145 4.06199 10.5" stroke="#2B3466" stroke-width="2" stroke-linecap="round" stroke-linejoin="round"/>
<path d="M5.99999 18C5.31082 18.0003 4.63326 17.8226 4.03299 17.484" stroke="#2B3466" stroke-width="2" stroke-linecap="round" stroke-linejoin="round"/>
<path d="M12 13H16" stroke="#2B3466" stroke-width="2" stroke-linecap="round" stroke-linejoin="round"/>
<path d="M12 18H18C18.5304 18 19.0391 18.2107 19.4142 18.5858C19.7893 18.9609 20 19.4696 20 20V21" stroke="#2B3466" stroke-width="2" stroke-linecap="round" stroke-linejoin="round"/>
<path d="M12 8H20" stroke="#2B3466" stroke-width="2" stroke-linecap="round" stroke-linejoin="round"/>
<path d="M16 8V5C16 4.46957 16.2107 3.96086 16.5858 3.58579C16.9609 3.21071 17.4696 3 18 3" stroke="#2B3466" stroke-width="2" stroke-linecap="round" stroke-linejoin="round"/>
<path d="M16 13.5C16.2761 13.5 16.5 13.2761 16.5 13C16.5 12.7239 16.2761 12.5 16 12.5C15.7239 12.5 15.5 12.7239 15.5 13C15.5 13.2761 15.7239 13.5 16 13.5Z" stroke="#2B3466" stroke-width="2" stroke-linecap="round" stroke-linejoin="round"/>
<path d="M18 3.5C18.2761 3.5 18.5 3.27614 18.5 3C18.5 2.72386 18.2761 2.5 18 2.5C17.7239 2.5 17.5 2.72386 17.5 3C17.5 3.27614 17.7239 3.5 18 3.5Z" stroke="#2B3466" stroke-width="2" stroke-linecap="round" stroke-linejoin="round"/>
<path d="M20 21.5C20.2761 21.5 20.5 21.2761 20.5 21C20.5 20.7239 20.2761 20.5 20 20.5C19.7239 20.5 19.5 20.7239 19.5 21C19.5 21.2761 19.7239 21.5 20 21.5Z" stroke="#2B3466" stroke-width="2" stroke-linecap="round" stroke-linejoin="round"/>
<path d="M20 8.5C20.2761 8.5 20.5 8.27614 20.5 8C20.5 7.72386 20.2761 7.5 20 7.5C19.7239 7.5 19.5 7.72386 19.5 8C19.5 8.27614 19.7239 8.5 20 8.5Z" stroke="#2B3466" stroke-width="2" stroke-linecap="round" stroke-linejoin="round"/>
</svg>
